<svg xmlns="http://www.w3.org/2000/svg" version="1.1" xmlns:xlink="http://www.w3.org/1999/xlink" width="512" height="512" x="0" y="0" viewBox="0 0 32 32" style="enable-background:new 0 0 512 512" xml:space="preserve" class=""><g><linearGradient id="a" x1="-3.15" x2="32.62" y1="25.15" y2="25.15" data-name="New Gradient Swatch" gradientUnits="userSpaceOnUse"><stop stop-opacity="1" stop-color="#01a1db" offset="0"></stop><stop stop-opacity="1" stop-color="#01739d" offset="1"></stop></linearGradient><linearGradient xlink:href="#a" id="b" x2="32.62" y1="9.46" y2="9.46" data-name="New Gradient Swatch"></linearGradient><linearGradient xlink:href="#a" id="c" x2="32.62" y1="6.22" y2="6.22" data-name="New Gradient Swatch"></linearGradient><path fill="url(#a)" d="M28.88 24.48a3.4 3.4 0 0 0 .52-1.78c0-1.88-1.53-3.4-3.4-3.4s-3.4 1.53-3.4 3.4c0 .65.19 1.26.52 1.78A4.678 4.678 0 0 0 21 28.4c0 1.43 1.17 2.6 2.6 2.6h4.8c1.43 0 2.6-1.17 2.6-2.6 0-1.62-.82-3.07-2.12-3.92zM26 21.3c.77 0 1.4.63 1.4 1.4s-.63 1.4-1.4 1.4-1.4-.63-1.4-1.4.63-1.4 1.4-1.4zm2.4 7.7h-4.8c-.33 0-.6-.27-.6-.6 0-1.16.73-2.15 1.8-2.53.37.14.78.23 1.2.23s.83-.09 1.2-.23c1.07.38 1.8 1.37 1.8 2.53 0 .33-.27.6-.6.6zM8.88 24.48a3.4 3.4 0 0 0 .52-1.78c0-1.88-1.53-3.4-3.4-3.4s-3.4 1.53-3.4 3.4c0 .65.19 1.26.52 1.78A4.678 4.678 0 0 0 1 28.4C1 29.83 2.17 31 3.6 31h4.8c1.43 0 2.6-1.17 2.6-2.6 0-1.62-.82-3.07-2.12-3.92zM6 21.3c.77 0 1.4.63 1.4 1.4s-.63 1.4-1.4 1.4-1.4-.63-1.4-1.4.63-1.4 1.4-1.4zM8.4 29H3.6c-.33 0-.6-.27-.6-.6 0-1.16.73-2.15 1.8-2.53.37.14.78.23 1.2.23s.83-.09 1.2-.23c1.07.38 1.8 1.37 1.8 2.53 0 .33-.27.6-.6.6z" opacity="1" data-original="url(#a)" class=""></path><path fill="url(#b)" d="M21.5 11.44h1.07l2.37 1.58c.17.11.36.17.55.17.16 0 .32-.04.47-.12.33-.17.53-.51.53-.88V3.75c0-1.52-1.23-2.75-2.75-2.75h-10.5c-1.52 0-2.75 1.23-2.75 2.75v.52h-2c-1.65 0-3 1.35-3 3v9.64c0 .37.2.71.53.88.15.08.31.12.47.12.19 0 .39-.06.55-.17l2.75-1.83h8.7c1.65 0 3-1.35 3-3v-1.48zm-9-7.69c0-.41.34-.75.75-.75h10.5c.41 0 .75.34.75.75v6.57l-1.07-.71a.99.99 0 0 0-.55-.17h-9.62c-.41 0-.75-.34-.75-.75V3.75zm6 10.17h-9c-.2 0-.39.06-.55.17l-1.45.96V7.28c0-.55.45-1 1-1h2V8.7c0 1.52 1.23 2.75 2.75 2.75h6.25v1.48c0 .55-.45 1-1 1z" opacity="1" data-original="url(#b)" class=""></path><g fill="url(#c)"><path d="M14.56 7.22h.88c.55 0 1-.45 1-1s-.45-1-1-1h-.88c-.55 0-1 .45-1 1s.45 1 1 1zM18.06 7.22h.88c.55 0 1-.45 1-1s-.45-1-1-1h-.88c-.55 0-1 .45-1 1s.45 1 1 1zM21.56 7.22h.88c.55 0 1-.45 1-1s-.45-1-1-1h-.88c-.55 0-1 .45-1 1s.45 1 1 1z" fill="" opacity="1"></path></g></g></svg>