<svg xmlns="http://www.w3.org/2000/svg" version="1.1" xmlns:xlink="http://www.w3.org/1999/xlink" width="512" height="512" x="0" y="0" viewBox="0 0 32 32" style="enable-background:new 0 0 512 512" xml:space="preserve" class=""><g><linearGradient id="a" x1="-2.93" x2="28.82" y1="22.2" y2="22.2" data-name="New Gradient Swatch" gradientUnits="userSpaceOnUse"><stop stop-opacity="1" stop-color="#01a1db" offset="0.007722007722007722"></stop><stop stop-opacity="1" stop-color="#01739d" offset="1"></stop></linearGradient><linearGradient xlink:href="#a" id="b" x2="28.82" y1="10.5" y2="10.5" data-name="New Gradient Swatch"></linearGradient><linearGradient xlink:href="#a" id="c" x2="28.82" y1="8.8" y2="8.8" data-name="New Gradient Swatch"></linearGradient><path fill="url(#a)" d="M12.64 19.87c.07-.3.11-.6.11-.92V17c0-1.98-1.62-3.6-3.6-3.6h-1.3a3.61 3.61 0 0 0-3.6 3.6v1.95c0 .32.04.62.11.92A7.46 7.46 0 0 0 1 26.1v1.95C1 29.68 2.32 31 3.95 31h9.1c1.63 0 2.95-1.32 2.95-2.95V26.1c0-2.54-1.27-4.85-3.36-6.23zM6.25 17c0-.88.72-1.6 1.6-1.6h1.3c.88 0 1.6.72 1.6 1.6v1.95c0 1.24-1.01 2.25-2.25 2.25s-2.25-1.01-2.25-2.25zM14 28.05c0 .52-.43.95-.95.95h-9.1c-.52 0-.95-.43-.95-.95V26.1c0-1.78.85-3.41 2.26-4.43.78.93 1.94 1.53 3.24 1.53s2.46-.6 3.24-1.53A5.462 5.462 0 0 1 14 26.1z" opacity="1" data-original="url(#a)"></path><path fill="url(#b)" d="m30.05 14.46-2.94-2.94c.32-.85.5-1.76.5-2.71 0-4.3-3.5-7.8-7.8-7.8s-7.8 3.5-7.8 7.8 3.5 7.8 7.8 7.8c.95 0 1.86-.18 2.71-.5l2.94 2.94a3.257 3.257 0 0 0 4.6 0c.61-.61.95-1.43.95-2.3s-.34-1.68-.95-2.3zm-10.25.14c-3.2 0-5.8-2.6-5.8-5.8S16.6 3 19.8 3s5.8 2.6 5.8 5.8-2.6 5.8-5.8 5.8zm8.83 3.04c-.49.49-1.28.49-1.77 0l-2.52-2.52c.68-.49 1.27-1.09 1.77-1.77l2.51 2.52a1.234 1.234 0 0 1 0 1.76z" opacity="1" data-original="url(#b)"></path><path fill="url(#c)" d="m21.48 6.6-2.21 2.27-1.16-1.18a.996.996 0 1 0-1.43 1.39L18.55 11c.19.19.45.3.72.3s.53-.11.72-.3l2.93-3c.39-.39.38-1.03-.02-1.41s-1.03-.38-1.41.02z" opacity="1" data-original="url(#c)"></path></g></svg>