<svg xmlns="http://www.w3.org/2000/svg" version="1.1" xmlns:xlink="http://www.w3.org/1999/xlink" width="512" height="512" x="0" y="0" viewBox="0 0 32 32" style="enable-background:new 0 0 512 512" xml:space="preserve" class=""><g><linearGradient id="a" x1="-1.91" x2="31.84" y1="11" y2="11" data-name="New Gradient Swatch" gradientUnits="userSpaceOnUse"><stop stop-opacity="1" stop-color="#01a1db" offset="0"></stop><stop stop-opacity="1" stop-color="#01739d" offset="1"></stop></linearGradient><linearGradient xlink:href="#a" id="b" x2="31.84" y1="6.27" y2="6.27" data-name="New Gradient Swatch"></linearGradient><linearGradient xlink:href="#a" id="c" x2="31.84" y1="15.73" y2="15.73" data-name="New Gradient Swatch"></linearGradient><linearGradient xlink:href="#a" id="d" y1="13" y2="13" data-name="New Gradient Swatch"></linearGradient><linearGradient xlink:href="#a" id="e" y1="28.5" y2="28.5" data-name="New Gradient Swatch"></linearGradient><linearGradient xlink:href="#a" id="f" y1="11.5" y2="11.5" data-name="New Gradient Swatch"></linearGradient><path fill="url(#a)" d="M30 10h-1c-.55 0-1 .45-1 1s.45 1 1 1h1c.55 0 1-.45 1-1s-.45-1-1-1z" opacity="1" data-original="url(#a)"></path><path fill="url(#b)" d="M28.5 7.55c.18 0 .37-.05.53-.15l.87-.55c.47-.29.61-.91.31-1.38a.992.992 0 0 0-1.38-.31l-.87.55c-.47.29-.61.91-.31 1.38.19.3.52.47.85.47z" opacity="1" data-original="url(#b)"></path><path fill="url(#c)" d="m29.9 15.15-.87-.55c-.47-.29-1.08-.15-1.38.31-.29.47-.15 1.08.31 1.38l.87.55c.17.1.35.15.53.15.33 0 .66-.17.85-.47.29-.47.15-1.08-.31-1.38z" opacity="1" data-original="url(#c)"></path><path fill="url(#a)" d="M3 12c.55 0 1-.45 1-1s-.45-1-1-1H2c-.55 0-1 .45-1 1s.45 1 1 1z" opacity="1" data-original="url(#a)"></path><path fill="url(#b)" d="m4.03 5.7-.87-.55c-.47-.29-1.08-.15-1.38.31-.29.47-.15 1.08.31 1.38l.87.55c.17.1.35.15.53.15.33 0 .66-.17.85-.47.29-.47.15-1.08-.31-1.38z" opacity="1" data-original="url(#b)"></path><path fill="url(#c)" d="m2.97 14.61-.87.55c-.47.29-.61.91-.31 1.38.19.3.52.47.85.47.18 0 .37-.05.53-.15l.87-.55c.47-.29.61-.91.31-1.38a.992.992 0 0 0-1.38-.31z" opacity="1" data-original="url(#c)"></path><path fill="url(#d)" d="M26 11c0-5.51-4.49-10-10-10S6 5.49 6 11c0 2.68 1.09 5.25 3 7.13V23h-.5c-.55 0-1 .45-1 1s.45 1 1 1h15c.55 0 1-.45 1-1s-.45-1-1-1H23v-4.87c1.91-1.88 3-4.45 3-7.13zM8 11c0-4.41 3.59-8 8-8s8 3.59 8 8c0 2.26-.97 4.43-2.67 5.95a1 1 0 0 0-.33.74V19h-2.06l1.42-8.12c.13-.75-.08-1.51-.58-2.08l-3.03-3.46c-.38-.43-1.12-.43-1.51 0L12.21 8.8c-.5.57-.71 1.33-.58 2.08L13.05 19h-2.06v-1.31a1 1 0 0 0-.33-.74A7.995 7.995 0 0 1 7.99 11zm7.09 8-1.48-8.47c-.03-.15.02-.3.12-.42L16 7.51l2.27 2.6c.1.11.14.27.12.42L16.91 19zM11 23v-2h10v2z" opacity="1" data-original="url(#d)" class=""></path><path fill="url(#e)" d="M20 26h-8c-.55 0-1 .45-1 1v1.5a2.5 2.5 0 0 0 2.5 2.5h5a2.5 2.5 0 0 0 2.5-2.5V27c0-.55-.45-1-1-1zm-1 2.5c0 .28-.22.5-.5.5h-5c-.28 0-.5-.22-.5-.5V28h6z" opacity="1" data-original="url(#e)"></path><path fill="url(#f)" d="M17 12v-1c0-.55-.45-1-1-1s-1 .45-1 1v1c0 .55.45 1 1 1s1-.45 1-1z" opacity="1" data-original="url(#f)"></path></g></svg>