<?xml version="1.0" encoding="UTF-8" standalone="no"?><!DOCTYPE svg PUBLIC "-//W3C//DTD SVG 1.1//EN" "http://www.w3.org/Graphics/SVG/1.1/DTD/svg11.dtd"><svg width="100%" height="100%" viewBox="0 0 2000 2000" version="1.1" xmlns="http://www.w3.org/2000/svg" xmlns:xlink="http://www.w3.org/1999/xlink" xml:space="preserve" xmlns:serif="http://www.serif.com/" style="fill-rule:evenodd;clip-rule:evenodd;stroke-linejoin:round;stroke-miterlimit:2;"><g id="Background"><path d="M1499.14,258.572c2.206,2.257 4.024,4.164 4.372,4.528c12.136,14.497 82.749,89.244 61.405,213.884c-15.771,92.097 -70.633,142.793 -78.725,154.893c-11.048,16.519 -91.463,86.953 -157.033,120.026c-9.23,4.656 -8.867,5.043 -18.051,9.589c-19.726,9.765 -19.442,10.028 -39.269,19.528c-61.388,29.411 -141.45,47.194 -145.63,48.49c-1.455,0.451 -40.044,5.58 -54.444,8.728c-3.644,0.797 -29.96,2.652 -32.569,2.836c-5.939,0.419 -4.756,11.271 -11.606,38.561c-0.497,1.979 -8.694,40.389 -9.443,43.902c-20.038,93.893 -60.776,171.874 -64.808,184.599c-0.895,2.824 -2.474,1.941 -16.796,33.006c-8.406,18.233 -35.078,60.679 -38.32,65.839c-32.686,52.018 -38.922,52.609 -33.299,58.389c4.833,4.968 106.864,141.592 111.083,145.956c1.35,1.397 13.579,19.59 19.664,26.087c4.763,5.086 21.352,26.531 23.164,28.873c21.761,28.132 51.306,56.417 53.102,58.214c23.771,23.782 67.047,58.036 85.136,69.329c6.497,4.056 176.971,132.731 358.791,69.194c2.863,-1.001 38.615,-15.058 67.54,-32.256c89.705,-53.334 151.739,-144.472 157.619,-151.492c7.846,-9.367 12.071,-25.722 21.569,-18.151c2.353,1.875 141.077,93.976 152.881,104.554c2.642,2.367 -7.184,12.969 -13.181,22.441c-0.514,0.812 -20.124,27.786 -28.115,37.283c-24.024,28.55 -23.114,29.225 -57.229,64.915c-0.337,0.353 -3.036,3.176 -4.089,4.529c-0.35,0.363 -2.187,2.267 -4.448,4.47c-14.151,11.795 -12.282,13.545 -26.916,25.058c-9.257,7.283 -8.202,8.191 -17.427,15.227c-2.082,1.588 -13.416,10.232 -25.575,20.418c-2.195,1.838 -63.883,47.531 -106.413,64.112c-3.425,1.335 -34.608,18.965 -87.26,32.529c-28.421,7.322 -28.229,7.153 -56.893,12.46c-0.343,0.064 -14.236,0.585 -26.248,3.809c-0.467,0.125 -80.91,6.067 -119.562,-2.611c-8.695,-1.952 -19.352,2.033 -102.506,-21.292c-79.011,-22.163 -190.332,-86.788 -239.237,-128.845c-1.964,-1.689 -2.326,-1.104 -25.07,-20.494c-22.525,-19.204 -72.947,-66.605 -96.649,-97.119c-0.835,-1.075 -1.167,-0.715 -10.876,-13.076c-30.036,-38.24 -58.482,-73.423 -64.667,-83.932c-0.405,-0.689 -8.789,-10.963 -9.562,-11.91c-15.319,-18.773 -13.964,-19.574 -29.123,-38.555c-0.089,-0.111 -22.569,-30.584 -28.139,-37.148c-6.083,-7.168 -5.898,-13.024 -13.451,-7.279c-1.391,1.058 -12.819,9.75 -16.95,13.786c-9.238,9.027 -91.773,61.99 -132.727,72.64c-18.037,4.69 -59.031,28.487 -163.56,25.817c-18.337,-0.468 -181.959,-12.75 -275.917,-138.164c-62.476,-83.393 -63.697,-195.246 -29.939,-267.852c4.045,-8.701 2.61,-9.26 13.335,-28.271c22.59,-40.042 41.324,-54.28 44.205,-60.651c0.763,-1.688 1.922,-0.563 17.369,-15.31c32.608,-31.132 75.278,-46.233 82.507,-48.792c12.495,-4.422 122.525,-61.039 328.807,47.519c1.884,0.991 32.091,19.89 34.874,21.632c42.098,26.339 91.509,70.308 99.004,76.978c4.233,2.277 4.435,2.999 5.132,2.001c0.678,-0.971 0.145,-2.484 0.822,-3.454c4.796,-5.5 26.445,-43.795 28.02,-45.94c1.819,-2.477 13.063,-25.514 14.156,-27.754c39.706,-81.355 50.65,-121.525 68.112,-205.211c1.858,-8.906 -10.039,-7.778 -14.074,-9.415c-5.55,-2.252 -46.203,-11.723 -108.578,-37.183c-21.602,-8.818 -108.014,-53.693 -140.271,-79.41c-4.06,-3.237 -28.575,-21.308 -31.07,-23.148c-10.726,-7.907 -66.876,-54.614 -64.144,-59.605c0.979,-1.788 45.616,-44.383 49.619,-48.204c1.468,-1.401 2.324,-0.442 40.037,-38.38c21.738,-21.868 22.986,-20.32 44.853,-42.284c7.341,-7.374 7.836,-0.391 15.754,6.108c21.584,17.715 20.75,18.476 43.083,35.487c42.464,32.346 96.696,65.75 174.082,92.091c23.305,7.933 24.387,3.653 24.876,1.719c1.141,-4.514 0.575,-4.561 11.716,-57.008c17.75,-83.559 51.329,-164.89 84.147,-212.944c28.303,-41.443 29.966,-40.058 48.834,-61.959c15.448,-17.931 86.082,-83.964 194.178,-111.597c3.62,-0.925 62.902,-23.263 137.59,-8.077c92.991,18.908 148.176,82.525 148.419,82.741l-334.438,167.369c-27.033,26.957 -39.049,41.428 -61.034,94.133c-3.65,8.749 -19.715,47.262 -33.199,113.757c-2.722,13.425 12.616,5.143 20.903,3.897c28.188,-4.239 68.503,-20.958 74.255,-23.343c45.985,-19.07 45.352,-20.046 88.921,-44.317c25.351,-14.122 159.113,-101.645 109.847,-169.887c-21.346,-29.567 -58.93,-41.013 -83.206,-33.535c-5.178,1.595 -71.19,14.479 -116.487,59.295l334.438,-167.369l-918.838,984.241c-4.575,-4.471 -5.059,-3.584 -9.511,-7.883c-30.159,-29.121 -97.658,-66.385 -122.334,-75.264c-89.843,-32.329 -111.82,-19.527 -134.211,-6.728c-10.437,5.966 -24.943,25.842 -25.886,27.891c-4.477,9.721 -40.105,67.686 31.188,113.808c15.37,9.943 14.359,11.613 31.589,17.836c43.689,15.778 44.27,13.566 69.383,15.941c35.163,3.326 54.457,-4.717 61.05,-6.146c3.457,-0.749 20.561,-4.457 41.717,-14.65c40.25,-19.392 38.55,-22.076 66.779,-40.571c14.361,-9.409 2.297,-12.174 -9.763,-24.233l918.838,-984.241Z" style="fill:#fff;"/><path d="M1288.882,1279.842c-5.193,4.935 -89.72,68.781 -170.863,-17.048c-0.958,-1.014 0.079,-1.554 -9.632,-14.532c-6.521,-8.715 -14.402,-38.114 -15.319,-41.535c-3.64,-13.58 -6.844,-63.188 28.41,-100.753c8.875,-9.457 34.804,-44.986 105.019,-41.134c1.127,0.062 32.463,7.1 39.065,11.286c13.308,8.438 49.31,26.63 62.134,73.509c6.733,24.614 10.782,42.303 -2.811,81.037c-8.958,25.526 -33.107,46.367 -36.002,49.169Z" style="fill:#fff;"/><path d="M1543.139,1266.795c-7.988,-10.212 -65.606,-83.866 -0.079,-162.066c31.104,-37.119 103.687,-59.787 162.183,-17.21c4.952,3.605 34.793,25.325 44.429,62.359c1.349,5.184 13.028,43.909 -4.636,82.909c-36.057,79.608 -117.078,85.497 -163.892,61.765c-21.245,-10.77 -21.213,-10.915 -38.005,-27.757Z" style="fill:#fff;"/></g></svg>