<svg xmlns="http://www.w3.org/2000/svg" version="1.1" xmlns:xlink="http://www.w3.org/1999/xlink" width="512" height="512" x="0" y="0" viewBox="0 0 32 32" style="enable-background:new 0 0 512 512" xml:space="preserve" class=""><g><linearGradient id="a" x1="-4.82" x2="29.93" y1="23.3" y2="23.3" data-name="New Gradient Swatch" gradientUnits="userSpaceOnUse"><stop stop-opacity="1" stop-color="#ffea6c" offset="0"></stop><stop stop-opacity="1" stop-color="#ffea6c" offset="1"></stop></linearGradient><linearGradient xlink:href="#a" id="b" x2="29.93" y1="9.5" y2="9.5" data-name="New Gradient Swatch"></linearGradient><linearGradient xlink:href="#a" id="c" x2="29.93" y1="8.75" y2="8.75" data-name="New Gradient Swatch"></linearGradient><linearGradient xlink:href="#a" id="d" x2="29.93" y1="5.25" y2="5.25" data-name="New Gradient Swatch"></linearGradient><path fill="url(#a)" d="M27.92 21.61c.05-.26.08-.53.08-.81V19c0-1.87-1.53-3.4-3.4-3.4h-1.2A3.41 3.41 0 0 0 20 19v1.8c0 .28.03.55.08.81A6.949 6.949 0 0 0 17 27.4v.2c0 1.87 1.53 3.4 3.4 3.4h7.2c1.87 0 3.4-1.53 3.4-3.4v-.2c0-2.35-1.17-4.5-3.08-5.79zM22 19c0-.77.63-1.4 1.4-1.4h1.2c.77 0 1.4.63 1.4 1.4v1.8c0 1.1-.9 2-2 2s-2-.9-2-2zm7 8.6c0 .77-.63 1.4-1.4 1.4h-7.2c-.77 0-1.4-.63-1.4-1.4v-.2c0-1.59.75-3.05 2-3.98.73.84 1.8 1.38 3 1.38s2.27-.54 3-1.38c1.25.94 2 2.39 2 3.98zM11.92 21.61c.05-.26.08-.53.08-.81V19c0-1.87-1.53-3.4-3.4-3.4H7.4A3.41 3.41 0 0 0 4 19v1.8c0 .28.03.55.08.81A6.949 6.949 0 0 0 1 27.4v.2C1 29.47 2.53 31 4.4 31h7.2c1.87 0 3.4-1.53 3.4-3.4v-.2c0-2.35-1.17-4.5-3.08-5.79zM6 19c0-.77.63-1.4 1.4-1.4h1.2c.77 0 1.4.63 1.4 1.4v1.8c0 1.1-.9 2-2 2s-2-.9-2-2zm7 8.6c0 .77-.63 1.4-1.4 1.4H4.4c-.77 0-1.4-.63-1.4-1.4v-.2c0-1.59.75-3.05 2-3.98.73.84 1.8 1.38 3 1.38s2.27-.54 3-1.38c1.25.94 2 2.39 2 3.98z" opacity="1" data-original="url(#a)" class=""></path><path fill="url(#b)" d="M21.48 13h3.44c1.7 0 3.08-1.38 3.08-3.08V4.08C28 2.38 26.62 1 24.92 1H7.08C5.38 1 4 2.38 4 4.08v5.84C4 11.62 5.38 13 7.08 13h3.44l3.07 3.84c.59.73 1.46 1.16 2.41 1.16s1.82-.42 2.41-1.16L21.49 13zm-6.32 2.59-3.38-4.22a1 1 0 0 0-.78-.38H7.08c-.6 0-1.08-.48-1.08-1.08V4.07c0-.6.48-1.08 1.08-1.08h17.84c.6 0 1.08.48 1.08 1.08v5.84c0 .6-.48 1.08-1.08 1.08H16c-.55 0-1 .45-1 1s.45 1 1 1h2.92l-2.08 2.59c-.41.52-1.27.52-1.69 0z" opacity="1" data-original="url(#b)" class=""></path><path fill="url(#c)" d="M24.5 8.75c0-.55-.45-1-1-1h-15c-.55 0-1 .45-1 1s.45 1 1 1h15c.55 0 1-.45 1-1z" opacity="1" data-original="url(#c)" class=""></path><g fill="url(#d)"><path d="M12.5 6.25h11c.55 0 1-.45 1-1s-.45-1-1-1h-11c-.55 0-1 .45-1 1s.45 1 1 1zM8.5 6.25H9c.55 0 1-.45 1-1s-.45-1-1-1h-.5c-.55 0-1 .45-1 1s.45 1 1 1z" fill="" opacity="1"></path></g></g></svg>