<svg xmlns="http://www.w3.org/2000/svg" version="1.1" xmlns:xlink="http://www.w3.org/1999/xlink" width="512" height="512" x="0" y="0" viewBox="0 0 32 32" style="enable-background:new 0 0 512 512" xml:space="preserve" class=""><g><linearGradient id="a" x1="-5.96" x2="33.07" y1="21.5" y2="21.5" data-name="New Gradient Swatch" gradientUnits="userSpaceOnUse"><stop stop-opacity="1" stop-color="#ffea6c" offset="0"></stop><stop stop-opacity="1" stop-color="#ffea6c" offset="1"></stop></linearGradient><linearGradient xlink:href="#a" id="b" x2="33.07" y1="15.25" y2="15.25" data-name="New Gradient Swatch"></linearGradient><linearGradient xlink:href="#a" id="c" x2="33.07" y1="16" y2="16" data-name="New Gradient Swatch"></linearGradient><path fill="url(#a)" d="M15.3 20.5H15c-.55 0-1 .45-1 1s.45 1 1 1h.3c.55 0 1-.45 1-1s-.45-1-1-1z" opacity="1" data-original="url(#a)"></path><path fill="url(#b)" d="M13 18h8c.55 0 1 .45 1 1v.5c0 .55-.45 1-1 1h-2.48c-.55 0-1 .45-1 1s.45 1 1 1H21c1.65 0 3-1.35 3-3V19c0-1.65-1.35-3-3-3h-8c-.55 0-1-.45-1-1v-1.5c0-.55.45-1 1-1h8.59l-.79.79a.996.996 0 0 0 .71 1.7c.26 0 .51-.1.71-.29l2.5-2.5a.996.996 0 0 0 0-1.41l-2.5-2.5a.996.996 0 1 0-1.41 1.41l.79.79H13c-1.65 0-3 1.35-3 3v1.5c0 1.65 1.35 3 3 3z" opacity="1" data-original="url(#b)"></path><path fill="url(#c)" d="M28.5 1h-22A2.5 2.5 0 0 0 4 3.5v2c0 .55.45 1 1 1h1v10.55c-1.42.24-2.5 1.47-2.5 2.95v1.5c0 .21.03.41.06.61A5.931 5.931 0 0 0 1 27v1.5A2.5 2.5 0 0 0 3.5 31h7a2.5 2.5 0 0 0 2.5-2.5V27c0-.34-.04-.67-.09-1h3.59v3h-1c-.55 0-1 .45-1 1s.45 1 1 1h4c.55 0 1-.45 1-1s-.45-1-1-1h-1v-3h8a2.5 2.5 0 0 0 2.5-2.5v-17h1c.55 0 1-.45 1-1v-2A2.5 2.5 0 0 0 28.5 1zm-23 19c0-.55.45-1 1-1h1c.55 0 1 .45 1 1v1.5c0 .83-.67 1.5-1.5 1.5s-1.5-.67-1.5-1.5zm5.5 8.5c0 .28-.22.5-.5.5h-7c-.28 0-.5-.22-.5-.5V27c0-1.21.56-2.33 1.49-3.08C5.13 24.58 6.02 25 7 25s1.88-.42 2.51-1.08A3.94 3.94 0 0 1 11 27zm16-5c0 .28-.22.5-.5.5H12.18a5.923 5.923 0 0 0-1.74-1.89c.03-.2.06-.4.06-.61V20c0-1.48-1.08-2.71-2.5-2.95V6.5h19zm2-19H6v-1c0-.28.22-.5.5-.5h22c.28 0 .5.22.5.5z" opacity="1" data-original="url(#c)" class=""></path></g></svg>