<svg xmlns="http://www.w3.org/2000/svg" version="1.1" xmlns:xlink="http://www.w3.org/1999/xlink" width="512" height="512" x="0" y="0" viewBox="0 0 32 32" style="enable-background:new 0 0 512 512" xml:space="preserve" class=""><g><path d="M5 22h8v2H5zM5 18h6v2H5z" fill="#ffea6c" opacity="1" data-original="#000000" class=""></path><path d="M30.16 15 28 14.65V2a1 1 0 0 0-1-1H2a1 1 0 0 0-1 1v25a1 1 0 0 0 1 1h17.32a9.77 9.77 0 0 0 4.36 3 1 1 0 0 0 .64 0A9.77 9.77 0 0 0 31 21.68V16a1 1 0 0 0-.84-1zM26 7h-6V3h6zM11 3h7v7.46l-3.09-1.37a1 1 0 0 0-.82 0L11 10.46zM9 3v4H3V3zM3 26V9h6v3a1 1 0 0 0 1.41.91l4.09-1.82 4.09 1.82A1 1 0 0 0 19 13a1 1 0 0 0 .54-.16A1 1 0 0 0 20 12V9h6v5.32L24.16 14h-.32l-6 1a1 1 0 0 0-.84 1v5.68A9.76 9.76 0 0 0 18 26zm26-4.32a7.77 7.77 0 0 1-5 7.26 7.77 7.77 0 0 1-5-7.26v-4.83l5-.85 5 .84z" fill="#ffea6c" opacity="1" data-original="#000000" class=""></path><path d="m22.09 20.07-1.5 1.32 2 2.27a1 1 0 0 0 .75.34 1 1 0 0 0 .74-.34l3.32-3.75-1.5-1.32-2.56 2.9z" fill="#ffea6c" opacity="1" data-original="#000000" class=""></path></g></svg>