<?xml version="1.0" encoding="UTF-8" standalone="no"?><!DOCTYPE svg PUBLIC "-//W3C//DTD SVG 1.1//EN" "http://www.w3.org/Graphics/SVG/1.1/DTD/svg11.dtd"><svg width="100%" height="100%" viewBox="0 0 2000 2000" version="1.1" xmlns="http://www.w3.org/2000/svg" xmlns:xlink="http://www.w3.org/1999/xlink" xml:space="preserve" xmlns:serif="http://www.serif.com/" style="fill-rule:evenodd;clip-rule:evenodd;stroke-linejoin:round;stroke-miterlimit:2;"><g id="Background"><path d="M1222.967,241.423c1.776,1.817 3.24,3.352 3.52,3.646c9.772,11.672 66.627,71.856 49.441,172.212c-12.698,74.153 -56.871,114.972 -63.387,124.715c-8.896,13.301 -73.643,70.012 -126.438,96.641c-7.432,3.749 -7.139,4.06 -14.534,7.721c-15.882,7.863 -15.654,8.075 -31.618,15.723c-49.428,23.681 -113.89,37.999 -117.256,39.042c-1.172,0.363 -32.242,4.492 -43.836,7.027c-2.934,0.642 -24.123,2.135 -26.223,2.283c-4.781,0.337 -3.83,9.075 -9.345,31.048c-0.4,1.593 -7,32.52 -7.604,35.349c-16.134,75.6 -48.934,138.387 -52.181,148.632c-0.721,2.274 -1.992,1.563 -13.523,26.575c-6.768,14.681 -28.243,48.856 -30.854,53.011c-26.318,41.883 -31.339,42.359 -26.811,47.013c3.891,4 86.043,114.005 89.44,117.519c1.087,1.125 10.933,15.773 15.833,21.004c3.835,4.095 17.192,21.362 18.651,23.248c17.521,22.651 41.31,45.425 42.755,46.872c19.14,19.148 53.984,46.729 68.549,55.821c5.231,3.265 142.491,106.87 288.886,55.713c2.305,-0.806 31.092,-12.125 54.381,-25.971c72.227,-42.943 122.175,-116.323 126.909,-121.976c6.317,-7.542 9.719,-20.711 17.367,-14.615c1.894,1.51 113.591,75.666 123.095,84.184c2.127,1.906 -5.785,10.442 -10.613,18.069c-0.414,0.654 -16.203,22.372 -22.638,30.019c-19.343,22.987 -18.611,23.531 -46.079,52.267c-0.272,0.284 -2.444,2.557 -3.292,3.646c-0.282,0.292 -1.761,1.826 -3.581,3.599c-11.394,9.497 -9.889,10.906 -21.671,20.176c-7.454,5.864 -6.604,6.595 -14.032,12.26c-1.676,1.278 -10.802,8.238 -20.592,16.44c-1.767,1.48 -51.436,38.27 -85.68,51.621c-2.758,1.075 -27.865,15.27 -70.259,26.191c-22.883,5.895 -22.729,5.759 -45.808,10.032c-0.277,0.051 -11.462,0.471 -21.134,3.067c-0.376,0.101 -65.146,4.885 -96.267,-2.102c-7.001,-1.572 -15.581,1.637 -82.534,-17.143c-63.617,-17.845 -153.249,-69.878 -192.625,-103.742c-1.581,-1.36 -1.873,-0.889 -20.185,-16.501c-18.137,-15.462 -58.735,-53.628 -77.819,-78.197c-0.672,-0.865 -0.94,-0.576 -8.757,-10.529c-24.184,-30.79 -47.088,-59.118 -52.067,-67.579c-0.326,-0.555 -7.077,-8.827 -7.699,-9.59c-12.334,-15.116 -11.244,-15.76 -23.448,-31.043c-0.072,-0.09 -18.172,-24.625 -22.657,-29.911c-4.898,-5.772 -4.749,-10.487 -10.83,-5.861c-1.12,0.852 -10.321,7.85 -13.647,11.1c-7.438,7.268 -73.893,49.912 -106.867,58.487c-14.523,3.777 -47.53,22.937 -131.693,20.787c-14.764,-0.377 -146.507,-10.266 -222.159,-111.245c-50.304,-67.145 -51.287,-157.205 -24.106,-215.665c3.257,-7.005 2.101,-7.455 10.737,-22.763c18.188,-32.241 33.273,-43.704 35.592,-48.834c0.614,-1.359 1.548,-0.453 13.985,-12.327c26.255,-25.067 60.611,-37.225 66.432,-39.285c10.06,-3.56 98.653,-49.147 264.744,38.26c1.517,0.798 25.838,16.015 28.079,17.417c33.896,21.207 73.68,56.61 79.715,61.98c3.408,1.834 3.571,2.415 4.132,1.611c0.546,-0.781 0.117,-2 0.662,-2.781c3.861,-4.428 21.293,-35.262 22.561,-36.99c1.464,-1.994 10.518,-20.543 11.398,-22.347c31.97,-65.504 40.781,-97.848 54.842,-165.229c1.496,-7.17 -8.083,-6.262 -11.332,-7.581c-4.469,-1.813 -37.201,-9.439 -87.423,-29.938c-17.393,-7.1 -86.969,-43.232 -112.941,-63.938c-3.269,-2.606 -23.008,-17.157 -25.017,-18.638c-8.636,-6.366 -53.846,-43.973 -51.647,-47.992c0.788,-1.44 36.728,-35.736 39.952,-38.812c1.182,-1.128 1.871,-0.356 32.237,-30.902c17.503,-17.607 18.508,-16.361 36.114,-34.046c5.911,-5.937 6.309,-0.315 12.685,4.918c17.379,14.264 16.707,14.876 34.689,28.573c34.19,26.044 77.856,52.94 140.165,74.148c18.765,6.387 19.636,2.941 20.03,1.384c0.919,-3.634 0.463,-3.672 9.433,-45.901c14.291,-67.279 41.329,-132.764 67.752,-171.455c22.789,-33.369 24.128,-32.254 39.319,-49.887c12.438,-14.438 69.31,-67.605 156.345,-89.854c2.914,-0.745 50.646,-18.731 110.783,-6.503c74.873,15.224 119.306,66.447 119.502,66.62l-269.278,134.76c-21.766,21.705 -31.441,33.356 -49.143,75.792c-2.939,7.045 -15.874,38.053 -26.73,91.593c-2.192,10.809 10.158,4.141 16.83,3.138c22.696,-3.413 55.156,-16.874 59.787,-18.795c37.025,-15.355 36.516,-16.141 71.596,-35.682c20.412,-11.37 128.112,-81.841 88.445,-136.787c-17.187,-23.807 -47.449,-33.022 -66.995,-27.001c-4.169,1.284 -57.32,11.658 -93.791,47.742l269.278,-134.76l-739.817,792.477c-3.684,-3.6 -4.073,-2.886 -7.658,-6.347c-24.283,-23.447 -78.631,-53.451 -98.499,-60.6c-72.338,-26.031 -90.034,-15.723 -108.062,-5.417c-8.404,4.804 -20.083,20.807 -20.843,22.456c-3.604,7.827 -32.291,54.499 25.111,91.634c12.375,8.006 11.561,9.35 25.434,14.361c35.177,12.704 35.645,10.923 55.865,12.835c28.312,2.678 43.847,-3.798 49.156,-4.949c2.783,-0.603 16.555,-3.589 33.589,-11.796c32.408,-15.614 31.039,-17.775 53.768,-32.666c11.563,-7.576 1.85,-9.802 -7.861,-19.512l739.817,-792.477Z" style="fill:#01a1db;fill-opacity:1;"/><path d="M1191.1,1829.947l-1.754,0c-1.276,-0.441 -0.36,-1.337 -1.718,-1.806c-0.015,-0.005 -0.009,0 -3.511,-0.001c-5.478,-0.002 -68.287,-0.026 -68.47,0c-0.822,0.121 -0.897,1.685 -1.719,1.807l-1.754,0c-0.764,-0.407 -1.067,-1.434 -1.83,-1.841c-0.183,-0.097 -22.521,-0.568 -24.428,-0.981c-0.988,-0.214 -10.645,-2.303 -12.392,-2.493c-25.592,-2.777 -25.418,-2.767 -50.878,-7.074c-28.21,-4.772 -27.749,-6.343 -55.97,-11.499c-1.863,-0.34 -72.723,-22.822 -80.441,-26.769c-23.164,-11.845 -24.202,-9.354 -26.061,-10.623c-9.003,-6.149 -15.716,-6.412 -23.543,-11.127c-6.843,-4.122 -7.293,-2.957 -14.033,-7.014c-10.062,-6.056 -49.814,-24.16 -109.936,-69.359c-18.959,-14.253 -18.338,-14.749 -36.807,-29.834c-0.915,-0.747 -4.448,-3.633 -10.964,-9.89c-11.53,-11.073 -11.393,-11.185 -12.431,-12.106c-8.86,-7.86 -9.211,-7.331 -17.208,-16.102c-12.442,-13.646 -12.154,-13.754 -13.262,-14.903c-31.289,-32.444 -51.21,-61.5 -57.808,-70.405c-4.603,-6.212 1.373,-6.381 77.997,-61.83c39.553,-28.622 40.254,-27.587 43.575,-30.227c5.357,-4.258 4.732,1.664 29.028,31.289c13.801,16.829 14.902,15.693 28.98,32.247c9.438,11.098 10.518,9.908 15.236,14.605c48.758,48.536 85.91,67.251 90.152,71.19c3.9,3.622 4.994,1.745 8.737,5.301c6.268,5.953 68.148,36.95 89.701,44.816c103.213,37.667 188.242,45.101 289.017,31.743c20.543,-2.723 79.246,-16.815 82.362,-18.927c1.293,-0.877 21.209,-7.635 23.066,-8.265c12.191,-4.137 72.736,-24.683 142.32,-75.094c21.2,-15.358 23.188,-18.519 25.72,-20.184c9.81,-6.447 24.399,-20.679 26.39,-22.62c4.394,-4.286 64.392,-59.064 106.791,-135.072c29.932,-53.659 26.834,-55.251 29.929,-59.597c2.349,-3.298 20.898,-57.014 22.171,-61.469c23.824,-83.397 24.061,-170.117 22.472,-178.797c-4.276,-23.358 1.916,-46.621 -22.039,-136.575c-12.388,-46.518 -40.204,-100.786 -44.506,-109.179c-16.795,-32.767 -18.698,-31.518 -22.778,-38.631c-21.633,-37.712 -66.744,-86.291 -69.28,-88.872c-80.308,-81.731 -163.239,-117.232 -170.196,-120.673c-9.998,-4.946 -17.459,-5.599 -17.432,-9.302c0.005,-0.662 40.685,-96.725 44.243,-105.128c1.237,-2.922 14.992,-35.403 16.114,-36.241c3.026,-2.259 54.151,23.91 58.732,26.255c65.081,33.313 132.494,89.522 137.151,94.048c19.542,18.99 200.911,166.553 239.128,443.663c1.727,12.525 12.777,92.645 4.892,157.973c-5.107,42.319 -4.266,42.3 -11.862,84.272c-13.824,76.379 -46.234,147.561 -48.67,153.949c-2.614,6.854 -23.348,47.61 -28.732,56.621c-15.63,26.164 -47.615,86.842 -125.561,164.023c-40.388,39.991 -72.568,61.987 -72.873,62.241c-1.298,1.081 -12.687,10.566 -16.579,13.068c-54.648,35.141 -116.25,74.936 -220.399,104.164c-3.211,0.901 -28.86,8.099 -40.366,10.422c-44.415,8.967 -79.683,12.539 -80.594,12.682c-30.481,4.781 -30.661,1.822 -33.289,2.29c-0.852,0.152 -0.979,1.688 -1.83,1.84Z" style="fill:#01a1db;fill-opacity:1;"/><path d="M1053.674,1063.715c-4.181,3.974 -72.24,55.38 -137.573,-13.726c-0.771,-0.816 0.064,-1.251 -7.755,-11.7c-5.25,-7.017 -11.596,-30.688 -12.334,-33.443c-2.931,-10.934 -5.511,-50.877 22.875,-81.123c7.146,-7.615 28.023,-36.222 84.558,-33.119c0.907,0.05 26.138,5.717 31.454,9.087c10.715,6.794 39.702,21.442 50.028,59.187c5.421,19.819 8.681,34.061 -2.264,65.248c-7.213,20.553 -26.657,37.333 -28.988,39.589Z" style="fill:#01a1db;fill-opacity:1;"/><path d="M1258.394,1053.209c-6.432,-8.222 -52.823,-67.526 -0.063,-130.49c25.044,-29.887 83.485,-48.138 130.584,-13.857c3.988,2.902 28.014,20.391 35.773,50.21c1.086,4.174 10.49,35.354 -3.733,66.755c-29.032,64.098 -94.267,68.839 -131.96,49.731c-17.106,-8.671 -17.08,-8.789 -30.6,-22.349Z" style="fill:#01a1db;fill-opacity:1;"/></g></svg>